<?xml version="1.0" encoding="utf-8"?>
<!-- Generator: Adobe Illustrator 16.0.0, SVG Export Plug-In . SVG Version: 6.00 Build 0)  -->
<!DOCTYPE svg PUBLIC "-//W3C//DTD SVG 1.1//EN" "http://www.w3.org/Graphics/SVG/1.1/DTD/svg11.dtd">
<svg version="1.1" id="Layer_1" xmlns="http://www.w3.org/2000/svg" xmlns:xlink="http://www.w3.org/1999/xlink" x="0px" y="0px"
	 width="230px" height="140px" viewBox="0 0 230 140" enable-background="new 0 0 230 140" xml:space="preserve">
<rect fill="#ED5757" width="230" height="140"/>
<g>
	<rect x="83" y="53.5" fill="none" width="64" height="43"/>
	<path fill="#FFFFFF" d="M91.561,75.421c0,0.516-0.064,1.014-0.193,1.494s-0.34,0.905-0.633,1.274s-0.68,0.665-1.16,0.888
		s-1.078,0.334-1.793,0.334c-0.668,0-1.23-0.1-1.688-0.299s-0.835-0.466-1.134-0.8s-0.519-0.724-0.659-1.169
		s-0.229-0.908-0.264-1.389c-0.035-0.047-0.062-0.1-0.079-0.158s-0.026-0.117-0.026-0.176c0-0.129,0.047-0.237,0.141-0.325
		s0.205-0.132,0.334-0.132s0.237,0.044,0.325,0.132s0.132,0.196,0.132,0.325c0,0.059-0.009,0.117-0.026,0.176
		s-0.044,0.111-0.079,0.158c0.012,0.398,0.076,0.776,0.193,1.134s0.296,0.671,0.536,0.94s0.548,0.483,0.923,0.642
		s0.832,0.237,1.371,0.237c0.574,0,1.058-0.091,1.45-0.272s0.706-0.428,0.94-0.738s0.404-0.662,0.51-1.055s0.158-0.8,0.158-1.222
		v-4.5c0-0.609-0.12-1.192-0.36-1.749s-0.583-1.04-1.028-1.45l-4.219-3.744c-0.293-0.258-0.527-0.524-0.703-0.8
		s-0.311-0.548-0.404-0.817s-0.155-0.542-0.185-0.817s-0.044-0.554-0.044-0.835v-3.111c0-0.504,0.064-1.002,0.193-1.494
		s0.34-0.932,0.633-1.318s0.68-0.697,1.16-0.932s1.078-0.352,1.793-0.352c0.668,0,1.233,0.105,1.696,0.316s0.841,0.492,1.134,0.844
		s0.513,0.753,0.659,1.204s0.231,0.923,0.255,1.415c0.035,0.035,0.062,0.082,0.079,0.141s0.026,0.117,0.026,0.176
		c0,0.129-0.044,0.24-0.132,0.334s-0.196,0.141-0.325,0.141s-0.24-0.047-0.334-0.141s-0.141-0.205-0.141-0.334
		c0-0.117,0.035-0.211,0.105-0.281c-0.023-0.387-0.091-0.765-0.202-1.134s-0.287-0.7-0.527-0.993s-0.548-0.527-0.923-0.703
		s-0.832-0.264-1.371-0.264c-0.574,0-1.058,0.1-1.45,0.299s-0.706,0.457-0.94,0.773s-0.404,0.677-0.51,1.081
		s-0.158,0.812-0.158,1.222v3.111c0.023,0.598,0.114,1.128,0.272,1.591s0.442,0.876,0.853,1.239l4.236,3.744
		c0.633,0.586,1.055,1.189,1.266,1.811s0.316,1.23,0.316,1.828V75.421z"/>
	<path fill="#FFFFFF" d="M94.848,56.735c0.07,0.07,0.105,0.164,0.105,0.281c0,0.129-0.044,0.24-0.132,0.334
		s-0.196,0.141-0.325,0.141s-0.24-0.047-0.334-0.141s-0.141-0.205-0.141-0.334c0-0.117,0.035-0.211,0.105-0.281v-1.037
		c-0.07-0.117-0.105-0.229-0.105-0.334c0-0.129,0.047-0.237,0.141-0.325s0.205-0.132,0.334-0.132s0.237,0.044,0.325,0.132
		s0.132,0.196,0.132,0.325c0,0.105-0.035,0.217-0.105,0.334V56.735z M94.848,78.655c0.07,0.094,0.105,0.193,0.105,0.299
		c0,0.129-0.044,0.237-0.132,0.325s-0.196,0.132-0.325,0.132s-0.24-0.044-0.334-0.132s-0.141-0.196-0.141-0.325
		c0-0.105,0.035-0.205,0.105-0.299V61.499c-0.07-0.117-0.105-0.229-0.105-0.334c0-0.129,0.047-0.237,0.141-0.325
		s0.205-0.132,0.334-0.132s0.237,0.044,0.325,0.132s0.132,0.196,0.132,0.325c0,0.105-0.035,0.217-0.105,0.334V78.655z"/>
	<path fill="#FFFFFF" d="M100.543,82.364c-0.105,0.48-0.226,0.955-0.36,1.424s-0.325,0.896-0.571,1.283s-0.563,0.706-0.949,0.958
		s-0.891,0.401-1.512,0.448c-0.059,0.035-0.111,0.067-0.158,0.097s-0.1,0.044-0.158,0.044c-0.129,0-0.24-0.047-0.334-0.141
		s-0.141-0.205-0.141-0.334s0.047-0.237,0.141-0.325s0.205-0.132,0.334-0.132c0.094,0,0.188,0.023,0.281,0.07
		c0.504-0.035,0.911-0.158,1.222-0.369s0.56-0.478,0.747-0.8s0.334-0.677,0.439-1.063s0.205-0.773,0.299-1.16l0.721-3.445
		l-3.744-17.385c-0.059-0.035-0.1-0.088-0.123-0.158s-0.035-0.141-0.035-0.211c0-0.129,0.047-0.237,0.141-0.325
		s0.205-0.132,0.334-0.132s0.24,0.044,0.334,0.132s0.141,0.196,0.141,0.325c0,0.07-0.023,0.152-0.07,0.246l3.41,15.785l3.393-15.785
		c-0.023-0.035-0.035-0.076-0.035-0.123s0-0.088,0-0.123c0-0.129,0.044-0.237,0.132-0.325s0.196-0.132,0.325-0.132
		s0.24,0.044,0.334,0.132s0.141,0.196,0.141,0.325c0,0.164-0.059,0.287-0.176,0.369l-3.744,17.314L100.543,82.364z"/>
	<path fill="#FFFFFF" d="M113.955,78.655c0.082,0.105,0.123,0.205,0.123,0.299c0,0.129-0.047,0.237-0.141,0.325
		s-0.205,0.132-0.334,0.132s-0.24-0.044-0.334-0.132s-0.141-0.196-0.141-0.325c0-0.105,0.035-0.205,0.105-0.299v-0.756
		c-0.316,0.457-0.712,0.823-1.187,1.099s-1.075,0.413-1.802,0.413c-0.703,0-1.292-0.12-1.767-0.36s-0.855-0.554-1.143-0.94
		s-0.492-0.826-0.615-1.318s-0.185-0.996-0.185-1.512v-2.918c0-0.516,0.056-1.02,0.167-1.512s0.328-0.932,0.65-1.318
		s0.785-0.7,1.389-0.94s1.397-0.36,2.382-0.36h2.109v-3.393c0-0.41-0.05-0.82-0.149-1.23s-0.264-0.776-0.492-1.099
		s-0.536-0.586-0.923-0.791s-0.861-0.308-1.424-0.308c-0.539,0-0.996,0.091-1.371,0.272s-0.683,0.416-0.923,0.703
		s-0.419,0.618-0.536,0.993s-0.182,0.756-0.193,1.143c0.082,0.082,0.123,0.176,0.123,0.281s-0.047,0.205-0.141,0.299
		s-0.205,0.141-0.334,0.141s-0.24-0.047-0.334-0.141s-0.141-0.193-0.141-0.299c0-0.059,0.009-0.117,0.026-0.176
		s0.044-0.105,0.079-0.141c0.035-0.492,0.123-0.964,0.264-1.415s0.36-0.853,0.659-1.204s0.677-0.633,1.134-0.844
		s1.02-0.316,1.688-0.316c0.703,0,1.292,0.12,1.767,0.36s0.855,0.554,1.143,0.94s0.492,0.826,0.615,1.318s0.185,0.996,0.185,1.512
		V78.655z M107.258,75.28c0,0.41,0.047,0.82,0.141,1.23s0.255,0.779,0.483,1.107s0.533,0.592,0.914,0.791s0.864,0.299,1.45,0.299
		c0.563,0,1.031-0.091,1.406-0.272s0.677-0.422,0.905-0.721s0.393-0.639,0.492-1.02s0.161-0.771,0.185-1.169v-6.574h-2.109
		c-0.844,0-1.521,0.1-2.03,0.299s-0.902,0.46-1.178,0.782s-0.454,0.688-0.536,1.099s-0.123,0.82-0.123,1.23V75.28z"/>
	<path fill="#FFFFFF" d="M122.076,71.431c0.305,0.281,0.557,0.568,0.756,0.861s0.354,0.592,0.466,0.896s0.188,0.609,0.229,0.914
		s0.062,0.604,0.062,0.896c0,0.609-0.062,1.184-0.185,1.723s-0.334,1.008-0.633,1.406s-0.7,0.712-1.204,0.94
		s-1.137,0.343-1.898,0.343c-0.727,0-1.336-0.111-1.828-0.334s-0.894-0.519-1.204-0.888s-0.542-0.794-0.694-1.274
		s-0.24-0.979-0.264-1.494c-0.035-0.035-0.062-0.082-0.079-0.141s-0.026-0.117-0.026-0.176c0-0.129,0.044-0.24,0.132-0.334
		s0.196-0.141,0.325-0.141s0.24,0.047,0.334,0.141s0.141,0.205,0.141,0.334c0,0.047-0.023,0.117-0.07,0.211
		c0.012,0.422,0.079,0.838,0.202,1.248s0.311,0.776,0.563,1.099s0.58,0.583,0.984,0.782s0.899,0.299,1.485,0.299
		c0.68,0,1.23-0.108,1.652-0.325s0.75-0.504,0.984-0.861s0.39-0.759,0.466-1.204s0.114-0.896,0.114-1.354
		c0-0.598-0.108-1.157-0.325-1.679s-0.542-0.987-0.976-1.397l-4.078-3.656c-0.281-0.258-0.507-0.513-0.677-0.765
		s-0.302-0.516-0.396-0.791s-0.158-0.56-0.193-0.853s-0.053-0.609-0.053-0.949c0-0.551,0.064-1.078,0.193-1.582
		s0.343-0.949,0.642-1.336s0.688-0.697,1.169-0.932s1.072-0.352,1.775-0.352c0.633,0,1.172,0.105,1.617,0.316
		s0.809,0.492,1.09,0.844s0.492,0.753,0.633,1.204s0.223,0.923,0.246,1.415c0.082,0.07,0.123,0.164,0.123,0.281
		c0,0.129-0.047,0.24-0.141,0.334s-0.205,0.141-0.334,0.141c-0.105,0-0.205-0.047-0.299-0.141s-0.141-0.205-0.141-0.334
		c0-0.094,0.041-0.176,0.123-0.246c-0.023-0.387-0.094-0.768-0.211-1.143s-0.293-0.706-0.527-0.993s-0.53-0.521-0.888-0.703
		s-0.788-0.272-1.292-0.272c-0.563,0-1.04,0.1-1.433,0.299s-0.709,0.46-0.949,0.782s-0.413,0.694-0.519,1.116
		s-0.158,0.855-0.158,1.301c0.012,0.691,0.094,1.254,0.246,1.688s0.428,0.82,0.826,1.16L122.076,71.431z"/>
	<path fill="#FFFFFF" d="M133.186,68.952h-6.697v6.328c0,0.422,0.05,0.838,0.149,1.248s0.264,0.776,0.492,1.099
		s0.536,0.583,0.923,0.782s0.861,0.299,1.424,0.299c0.551,0,1.014-0.088,1.389-0.264s0.677-0.407,0.905-0.694
		s0.396-0.618,0.501-0.993s0.17-0.762,0.193-1.16c-0.035-0.035-0.064-0.082-0.088-0.141s-0.035-0.105-0.035-0.141
		c0-0.129,0.047-0.24,0.141-0.334s0.205-0.141,0.334-0.141s0.24,0.047,0.334,0.141s0.141,0.205,0.141,0.334
		c0,0.035-0.009,0.082-0.026,0.141s-0.044,0.105-0.079,0.141c-0.035,0.492-0.12,0.967-0.255,1.424s-0.343,0.861-0.624,1.213
		s-0.653,0.636-1.116,0.853s-1.034,0.325-1.714,0.325c-0.703,0-1.292-0.12-1.767-0.36s-0.855-0.554-1.143-0.94
		s-0.492-0.826-0.615-1.318s-0.185-0.996-0.185-1.512V64.839c0-0.516,0.062-1.02,0.185-1.512s0.328-0.932,0.615-1.318
		s0.668-0.7,1.143-0.94s1.063-0.36,1.767-0.36s1.289,0.12,1.758,0.36s0.85,0.554,1.143,0.94s0.501,0.826,0.624,1.318
		s0.185,0.996,0.185,1.512V68.952z M132.465,68.231v-3.393c0-0.41-0.047-0.82-0.141-1.23s-0.255-0.776-0.483-1.099
		s-0.536-0.586-0.923-0.791s-0.867-0.308-1.441-0.308c-0.563,0-1.037,0.103-1.424,0.308s-0.694,0.469-0.923,0.791
		s-0.393,0.688-0.492,1.099s-0.149,0.82-0.149,1.23v3.393H132.465z"/>
	<path fill="#FFFFFF" d="M137.527,75.175c0,0.434,0.047,0.85,0.141,1.248s0.249,0.756,0.466,1.072s0.507,0.574,0.87,0.773
		s0.809,0.305,1.336,0.316c0.105-0.07,0.217-0.105,0.334-0.105c0.129,0,0.237,0.047,0.325,0.141s0.132,0.205,0.132,0.334
		s-0.044,0.237-0.132,0.325s-0.196,0.132-0.325,0.132c-0.117,0-0.229-0.035-0.334-0.105c-0.668-0.023-1.228-0.158-1.679-0.404
		s-0.814-0.56-1.09-0.94s-0.472-0.814-0.589-1.301s-0.176-0.981-0.176-1.485V61.78h-1.617c-0.07,0.07-0.164,0.105-0.281,0.105
		c-0.129,0-0.24-0.047-0.334-0.141s-0.141-0.205-0.141-0.334s0.047-0.237,0.141-0.325s0.205-0.132,0.334-0.132
		c0.117,0,0.211,0.035,0.281,0.105h1.617v-5.361c-0.07-0.117-0.105-0.229-0.105-0.334c0-0.129,0.047-0.237,0.141-0.325
		s0.205-0.132,0.334-0.132s0.24,0.044,0.334,0.132s0.141,0.196,0.141,0.325c0,0.082-0.041,0.193-0.123,0.334v5.361h2.813
		c0.105-0.07,0.217-0.105,0.334-0.105c0.129,0,0.237,0.044,0.325,0.132s0.132,0.196,0.132,0.325s-0.044,0.24-0.132,0.334
		s-0.196,0.141-0.325,0.141c-0.117,0-0.229-0.035-0.334-0.105h-2.813V75.175z"/>
</g>
</svg>
