<?xml version="1.0" encoding="utf-8"?>
<!-- Generator: Adobe Illustrator 16.0.0, SVG Export Plug-In . SVG Version: 6.00 Build 0)  -->
<!DOCTYPE svg PUBLIC "-//W3C//DTD SVG 1.1//EN" "http://www.w3.org/Graphics/SVG/1.1/DTD/svg11.dtd">
<svg version="1.1" id="Layer_1" xmlns="http://www.w3.org/2000/svg" xmlns:xlink="http://www.w3.org/1999/xlink" x="0px" y="0px"
	 width="230px" height="140px" viewBox="0 0 230 140" enable-background="new 0 0 230 140" xml:space="preserve">
<rect fill="#5EB1CF" width="230" height="140"/>
<g>
	<rect x="84" y="57.5" fill="none" width="56" height="36"/>
	<path fill="#FFFFFF" d="M88.781,82.655c0.082,0.105,0.123,0.205,0.123,0.299c0,0.129-0.047,0.237-0.141,0.325
		s-0.205,0.132-0.334,0.132s-0.24-0.044-0.334-0.132s-0.141-0.196-0.141-0.325c0-0.105,0.035-0.205,0.105-0.299V65.06l-3.621-6.662
		c-0.199-0.07-0.299-0.211-0.299-0.422c0-0.129,0.047-0.24,0.141-0.334s0.205-0.141,0.334-0.141s0.237,0.047,0.325,0.141
		s0.132,0.205,0.132,0.334c0,0.07-0.012,0.129-0.035,0.176l3.322,6.047h0.105l3.305-6.047v-0.176c0-0.129,0.047-0.24,0.141-0.334
		s0.205-0.141,0.334-0.141s0.24,0.047,0.334,0.141s0.141,0.205,0.141,0.334c0,0.105-0.032,0.193-0.097,0.264
		s-0.132,0.123-0.202,0.158l-3.639,6.662V82.655z"/>
	<path fill="#FFFFFF" d="M101.35,82.655c0.082,0.105,0.123,0.205,0.123,0.299c0,0.129-0.047,0.237-0.141,0.325
		s-0.205,0.132-0.334,0.132s-0.24-0.044-0.334-0.132s-0.141-0.196-0.141-0.325c0-0.105,0.035-0.205,0.105-0.299v-0.756
		c-0.316,0.457-0.712,0.823-1.187,1.099s-1.075,0.413-1.802,0.413c-0.703,0-1.292-0.12-1.767-0.36s-0.855-0.554-1.143-0.94
		s-0.492-0.826-0.615-1.318s-0.185-0.996-0.185-1.512v-2.918c0-0.516,0.056-1.02,0.167-1.512s0.328-0.932,0.65-1.318
		s0.785-0.7,1.389-0.94s1.397-0.36,2.382-0.36h2.109v-3.393c0-0.41-0.05-0.82-0.149-1.23s-0.264-0.776-0.492-1.099
		s-0.536-0.586-0.923-0.791s-0.861-0.308-1.424-0.308c-0.539,0-0.996,0.091-1.371,0.272s-0.683,0.416-0.923,0.703
		s-0.419,0.618-0.536,0.993s-0.182,0.756-0.193,1.143c0.082,0.082,0.123,0.176,0.123,0.281s-0.047,0.205-0.141,0.299
		s-0.205,0.141-0.334,0.141s-0.24-0.047-0.334-0.141s-0.141-0.193-0.141-0.299c0-0.059,0.009-0.117,0.026-0.176
		s0.044-0.105,0.079-0.141c0.035-0.492,0.123-0.964,0.264-1.415s0.36-0.853,0.659-1.204s0.677-0.633,1.134-0.844
		s1.02-0.316,1.688-0.316c0.703,0,1.292,0.12,1.767,0.36s0.855,0.554,1.143,0.94s0.492,0.826,0.615,1.318s0.185,0.996,0.185,1.512
		V82.655z M94.652,79.28c0,0.41,0.047,0.82,0.141,1.23s0.255,0.779,0.483,1.107s0.533,0.592,0.914,0.791s0.864,0.299,1.45,0.299
		c0.563,0,1.031-0.091,1.406-0.272s0.677-0.422,0.905-0.721s0.393-0.639,0.492-1.02s0.161-0.771,0.185-1.169v-6.574H98.52
		c-0.844,0-1.521,0.1-2.03,0.299s-0.902,0.46-1.178,0.782s-0.454,0.688-0.536,1.099s-0.123,0.82-0.123,1.23V79.28z"/>
	<path fill="#FFFFFF" d="M109.471,75.431c0.305,0.281,0.557,0.568,0.756,0.861s0.354,0.592,0.466,0.896s0.188,0.609,0.229,0.914
		s0.062,0.604,0.062,0.896c0,0.609-0.062,1.184-0.185,1.723s-0.334,1.008-0.633,1.406s-0.7,0.712-1.204,0.94
		s-1.137,0.343-1.898,0.343c-0.727,0-1.336-0.111-1.828-0.334s-0.894-0.519-1.204-0.888s-0.542-0.794-0.694-1.274
		s-0.24-0.979-0.264-1.494c-0.035-0.035-0.062-0.082-0.079-0.141s-0.026-0.117-0.026-0.176c0-0.129,0.044-0.24,0.132-0.334
		s0.196-0.141,0.325-0.141s0.24,0.047,0.334,0.141s0.141,0.205,0.141,0.334c0,0.047-0.023,0.117-0.07,0.211
		c0.012,0.422,0.079,0.838,0.202,1.248s0.311,0.776,0.563,1.099s0.58,0.583,0.984,0.782s0.899,0.299,1.485,0.299
		c0.68,0,1.23-0.108,1.652-0.325s0.75-0.504,0.984-0.861s0.39-0.759,0.466-1.204s0.114-0.896,0.114-1.354
		c0-0.598-0.108-1.157-0.325-1.679s-0.542-0.987-0.976-1.397l-4.078-3.656c-0.281-0.258-0.507-0.513-0.677-0.765
		s-0.302-0.516-0.396-0.791s-0.158-0.56-0.193-0.853s-0.053-0.609-0.053-0.949c0-0.551,0.064-1.078,0.193-1.582
		s0.343-0.949,0.642-1.336s0.688-0.697,1.169-0.932s1.072-0.352,1.775-0.352c0.633,0,1.172,0.105,1.617,0.316
		s0.809,0.492,1.09,0.844s0.492,0.753,0.633,1.204s0.223,0.923,0.246,1.415c0.082,0.07,0.123,0.164,0.123,0.281
		c0,0.129-0.047,0.24-0.141,0.334s-0.205,0.141-0.334,0.141c-0.105,0-0.205-0.047-0.299-0.141s-0.141-0.205-0.141-0.334
		c0-0.094,0.041-0.176,0.123-0.246c-0.023-0.387-0.094-0.768-0.211-1.143s-0.293-0.706-0.527-0.993s-0.53-0.521-0.888-0.703
		s-0.788-0.272-1.292-0.272c-0.563,0-1.04,0.1-1.433,0.299s-0.709,0.46-0.949,0.782s-0.413,0.694-0.519,1.116
		s-0.158,0.855-0.158,1.301c0.012,0.691,0.094,1.254,0.246,1.688s0.428,0.82,0.826,1.16L109.471,75.431z"/>
	<path fill="#FFFFFF" d="M120.105,82.655c0.082,0.105,0.123,0.205,0.123,0.299c0,0.129-0.047,0.237-0.141,0.325
		s-0.205,0.132-0.334,0.132s-0.24-0.044-0.334-0.132s-0.141-0.196-0.141-0.325c0-0.105,0.035-0.205,0.105-0.299v-0.756
		c-0.316,0.457-0.712,0.823-1.187,1.099s-1.075,0.413-1.802,0.413c-0.703,0-1.292-0.12-1.767-0.36s-0.855-0.554-1.143-0.94
		s-0.492-0.826-0.615-1.318s-0.185-0.996-0.185-1.512v-2.918c0-0.516,0.056-1.02,0.167-1.512s0.328-0.932,0.65-1.318
		s0.785-0.7,1.389-0.94s1.397-0.36,2.382-0.36h2.109v-3.393c0-0.41-0.05-0.82-0.149-1.23s-0.264-0.776-0.492-1.099
		s-0.536-0.586-0.923-0.791s-0.861-0.308-1.424-0.308c-0.539,0-0.996,0.091-1.371,0.272s-0.683,0.416-0.923,0.703
		s-0.419,0.618-0.536,0.993s-0.182,0.756-0.193,1.143c0.082,0.082,0.123,0.176,0.123,0.281s-0.047,0.205-0.141,0.299
		s-0.205,0.141-0.334,0.141s-0.24-0.047-0.334-0.141s-0.141-0.193-0.141-0.299c0-0.059,0.009-0.117,0.026-0.176
		s0.044-0.105,0.079-0.141c0.035-0.492,0.123-0.964,0.264-1.415s0.36-0.853,0.659-1.204s0.677-0.633,1.134-0.844
		s1.02-0.316,1.688-0.316c0.703,0,1.292,0.12,1.767,0.36s0.855,0.554,1.143,0.94s0.492,0.826,0.615,1.318s0.185,0.996,0.185,1.512
		V82.655z M113.408,79.28c0,0.41,0.047,0.82,0.141,1.23s0.255,0.779,0.483,1.107s0.533,0.592,0.914,0.791s0.864,0.299,1.45,0.299
		c0.563,0,1.031-0.091,1.406-0.272s0.677-0.422,0.905-0.721s0.393-0.639,0.492-1.02s0.161-0.771,0.185-1.169v-6.574h-2.109
		c-0.844,0-1.521,0.1-2.03,0.299s-0.902,0.46-1.178,0.782s-0.454,0.688-0.536,1.099s-0.123,0.82-0.123,1.23V79.28z"/>
	<path fill="#FFFFFF" d="M135.451,82.655c0.07,0.094,0.105,0.193,0.105,0.299c0,0.129-0.047,0.237-0.141,0.325
		s-0.205,0.132-0.334,0.132s-0.237-0.044-0.325-0.132s-0.132-0.196-0.132-0.325c0-0.105,0.035-0.205,0.105-0.299V68.364
		c0-0.352-0.041-0.703-0.123-1.055s-0.223-0.668-0.422-0.949s-0.466-0.51-0.8-0.686s-0.753-0.264-1.257-0.264
		c-0.48,0-0.882,0.079-1.204,0.237s-0.583,0.366-0.782,0.624s-0.346,0.551-0.439,0.879s-0.146,0.662-0.158,1.002v14.502
		c0.07,0.094,0.105,0.193,0.105,0.299c0,0.129-0.047,0.237-0.141,0.325s-0.205,0.132-0.334,0.132s-0.237-0.044-0.325-0.132
		s-0.132-0.196-0.132-0.325c0-0.105,0.035-0.205,0.105-0.299V68.364c0-0.352-0.041-0.703-0.123-1.055s-0.223-0.668-0.422-0.949
		s-0.466-0.51-0.8-0.686s-0.753-0.264-1.257-0.264c-0.48,0-0.888,0.079-1.222,0.237s-0.601,0.366-0.8,0.624
		s-0.343,0.551-0.431,0.879s-0.132,0.662-0.132,1.002v14.502c0.07,0.094,0.105,0.193,0.105,0.299c0,0.129-0.047,0.237-0.141,0.325
		s-0.205,0.132-0.334,0.132s-0.237-0.044-0.325-0.132s-0.132-0.196-0.132-0.325c0-0.105,0.035-0.205,0.105-0.299V65.499
		c-0.07-0.117-0.105-0.229-0.105-0.334c0-0.129,0.044-0.237,0.132-0.325s0.196-0.132,0.325-0.132s0.24,0.044,0.334,0.132
		s0.141,0.196,0.141,0.325c0,0.105-0.035,0.217-0.105,0.334v0.598c0.293-0.445,0.645-0.788,1.055-1.028s0.932-0.36,1.564-0.36
		c0.844,0,1.497,0.176,1.96,0.527s0.794,0.797,0.993,1.336c0.27-0.645,0.677-1.116,1.222-1.415s1.122-0.448,1.731-0.448
		c0.633,0,1.16,0.105,1.582,0.316s0.759,0.486,1.011,0.826s0.431,0.727,0.536,1.16s0.158,0.873,0.158,1.318V82.655z"/>
</g>
</svg>
