<?xml version="1.0" encoding="utf-8"?>
<!-- Generator: Adobe Illustrator 16.0.0, SVG Export Plug-In . SVG Version: 6.00 Build 0)  -->
<!DOCTYPE svg PUBLIC "-//W3C//DTD SVG 1.1//EN" "http://www.w3.org/Graphics/SVG/1.1/DTD/svg11.dtd">
<svg version="1.1" id="Layer_1" xmlns="http://www.w3.org/2000/svg" xmlns:xlink="http://www.w3.org/1999/xlink" x="0px" y="0px"
	 width="230px" height="140px" viewBox="0 0 230 140" enable-background="new 0 0 230 140" xml:space="preserve">
<rect fill="#F4BB3A" width="230" height="140"/>
<g>
	<rect x="85.5" y="54.5" fill="none" width="51" height="36"/>
	<path fill="#FFFFFF" d="M93.709,79.339c0.105-0.07,0.211-0.105,0.316-0.105c0.129,0,0.24,0.047,0.334,0.141
		s0.141,0.205,0.141,0.334s-0.047,0.237-0.141,0.325s-0.205,0.132-0.334,0.132c-0.105,0-0.211-0.035-0.316-0.105h-6.697V58.931
		c0-0.516,0.059-1.017,0.176-1.503s0.322-0.92,0.615-1.301s0.683-0.688,1.169-0.923s1.093-0.352,1.819-0.352h2.918
		c0.105-0.07,0.211-0.105,0.316-0.105c0.129,0,0.24,0.047,0.334,0.141s0.141,0.205,0.141,0.334s-0.047,0.24-0.141,0.334
		s-0.205,0.141-0.334,0.141c-0.094,0-0.199-0.041-0.316-0.123h-2.918c-0.598,0-1.093,0.097-1.485,0.29s-0.706,0.448-0.94,0.765
		s-0.398,0.677-0.492,1.081s-0.141,0.812-0.141,1.222v3.129h4.939c0.105-0.07,0.211-0.105,0.316-0.105
		c0.129,0,0.24,0.044,0.334,0.132s0.141,0.196,0.141,0.325s-0.047,0.24-0.141,0.334s-0.205,0.141-0.334,0.141
		c-0.105,0-0.211-0.035-0.316-0.105h-4.939v16.559H93.709z"/>
	<path fill="#FFFFFF" d="M103.799,83.487c0,0.516-0.062,1.02-0.185,1.512s-0.331,0.932-0.624,1.318s-0.674,0.7-1.143,0.94
		s-1.055,0.36-1.758,0.36c-0.668,0-1.233-0.105-1.696-0.316s-0.841-0.492-1.134-0.844s-0.513-0.753-0.659-1.204
		s-0.231-0.923-0.255-1.415c-0.082-0.082-0.123-0.188-0.123-0.316c0-0.117,0.047-0.22,0.141-0.308s0.205-0.132,0.334-0.132
		s0.24,0.044,0.334,0.132s0.141,0.19,0.141,0.308c0,0.059-0.009,0.117-0.026,0.176s-0.044,0.105-0.079,0.141
		c0.012,0.398,0.076,0.782,0.193,1.151s0.296,0.694,0.536,0.976s0.548,0.507,0.923,0.677s0.832,0.255,1.371,0.255
		c0.563,0,1.037-0.1,1.424-0.299s0.694-0.457,0.923-0.773s0.393-0.68,0.492-1.09s0.149-0.826,0.149-1.248v-4.588
		c-0.328,0.457-0.727,0.823-1.195,1.099s-1.066,0.413-1.793,0.413c-0.715,0-1.31-0.12-1.784-0.36s-0.855-0.554-1.143-0.94
		s-0.489-0.826-0.606-1.318s-0.176-0.996-0.176-1.512V65.839c0-0.516,0.059-1.02,0.176-1.512s0.319-0.932,0.606-1.318
		s0.668-0.7,1.143-0.94s1.069-0.36,1.784-0.36c0.727,0,1.324,0.138,1.793,0.413s0.867,0.642,1.195,1.099v-0.756
		c-0.082-0.141-0.123-0.252-0.123-0.334c0-0.129,0.047-0.24,0.141-0.334s0.205-0.141,0.334-0.141s0.24,0.047,0.334,0.141
		s0.141,0.205,0.141,0.334c0,0.105-0.035,0.217-0.105,0.334V83.487z M97.102,76.28c0,0.41,0.047,0.82,0.141,1.23
		s0.255,0.779,0.483,1.107s0.533,0.592,0.914,0.791s0.864,0.299,1.45,0.299c0.563,0,1.031-0.091,1.406-0.272
		s0.677-0.422,0.905-0.721s0.393-0.639,0.492-1.02s0.161-0.771,0.185-1.169V65.839c0-0.41-0.062-0.82-0.185-1.23
		s-0.308-0.776-0.554-1.099s-0.557-0.586-0.932-0.791s-0.814-0.308-1.318-0.308c-0.586,0-1.069,0.103-1.45,0.308
		s-0.686,0.469-0.914,0.791s-0.39,0.688-0.483,1.099s-0.141,0.82-0.141,1.23V76.28z"/>
	<path fill="#FFFFFF" d="M107.455,57.735c0.07,0.07,0.105,0.164,0.105,0.281c0,0.129-0.044,0.24-0.132,0.334
		s-0.196,0.141-0.325,0.141s-0.24-0.047-0.334-0.141s-0.141-0.205-0.141-0.334c0-0.117,0.035-0.211,0.105-0.281v-1.037
		c-0.07-0.117-0.105-0.229-0.105-0.334c0-0.129,0.047-0.237,0.141-0.325s0.205-0.132,0.334-0.132s0.237,0.044,0.325,0.132
		s0.132,0.196,0.132,0.325c0,0.105-0.035,0.217-0.105,0.334V57.735z M107.455,79.655c0.07,0.094,0.105,0.193,0.105,0.299
		c0,0.129-0.044,0.237-0.132,0.325s-0.196,0.132-0.325,0.132s-0.24-0.044-0.334-0.132s-0.141-0.196-0.141-0.325
		c0-0.105,0.035-0.205,0.105-0.299V62.499c-0.07-0.117-0.105-0.229-0.105-0.334c0-0.129,0.047-0.237,0.141-0.325
		s0.205-0.132,0.334-0.132s0.237,0.044,0.325,0.132s0.132,0.196,0.132,0.325c0,0.105-0.035,0.217-0.105,0.334V79.655z"/>
	<path fill="#FFFFFF" d="M112.236,76.175c0,0.434,0.047,0.85,0.141,1.248s0.249,0.756,0.466,1.072s0.507,0.574,0.87,0.773
		s0.809,0.305,1.336,0.316c0.105-0.07,0.217-0.105,0.334-0.105c0.129,0,0.237,0.047,0.325,0.141s0.132,0.205,0.132,0.334
		s-0.044,0.237-0.132,0.325s-0.196,0.132-0.325,0.132c-0.117,0-0.229-0.035-0.334-0.105c-0.668-0.023-1.228-0.158-1.679-0.404
		s-0.814-0.56-1.09-0.94s-0.472-0.814-0.589-1.301s-0.176-0.981-0.176-1.485V62.78h-1.617c-0.07,0.07-0.164,0.105-0.281,0.105
		c-0.129,0-0.24-0.047-0.334-0.141s-0.141-0.205-0.141-0.334s0.047-0.237,0.141-0.325s0.205-0.132,0.334-0.132
		c0.117,0,0.211,0.035,0.281,0.105h1.617v-5.361c-0.07-0.117-0.105-0.229-0.105-0.334c0-0.129,0.047-0.237,0.141-0.325
		s0.205-0.132,0.334-0.132s0.24,0.044,0.334,0.132s0.141,0.196,0.141,0.325c0,0.082-0.041,0.193-0.123,0.334v5.361h2.813
		c0.105-0.07,0.217-0.105,0.334-0.105c0.129,0,0.237,0.044,0.325,0.132s0.132,0.196,0.132,0.325s-0.044,0.24-0.132,0.334
		s-0.196,0.141-0.325,0.141c-0.117,0-0.229-0.035-0.334-0.105h-2.813V76.175z"/>
	<path fill="#FFFFFF" d="M118.107,57.735c0.07,0.07,0.105,0.164,0.105,0.281c0,0.129-0.044,0.24-0.132,0.334
		s-0.196,0.141-0.325,0.141s-0.24-0.047-0.334-0.141s-0.141-0.205-0.141-0.334c0-0.117,0.035-0.211,0.105-0.281v-1.037
		c-0.07-0.117-0.105-0.229-0.105-0.334c0-0.129,0.047-0.237,0.141-0.325s0.205-0.132,0.334-0.132s0.237,0.044,0.325,0.132
		s0.132,0.196,0.132,0.325c0,0.105-0.035,0.217-0.105,0.334V57.735z M118.107,79.655c0.07,0.094,0.105,0.193,0.105,0.299
		c0,0.129-0.044,0.237-0.132,0.325s-0.196,0.132-0.325,0.132s-0.24-0.044-0.334-0.132s-0.141-0.196-0.141-0.325
		c0-0.105,0.035-0.205,0.105-0.299V62.499c-0.07-0.117-0.105-0.229-0.105-0.334c0-0.129,0.047-0.237,0.141-0.325
		s0.205-0.132,0.334-0.132s0.237,0.044,0.325,0.132s0.132,0.196,0.132,0.325c0,0.105-0.035,0.217-0.105,0.334V79.655z"/>
	<path fill="#FFFFFF" d="M133.594,79.655c0.07,0.094,0.105,0.193,0.105,0.299c0,0.129-0.047,0.237-0.141,0.325
		s-0.205,0.132-0.334,0.132s-0.237-0.044-0.325-0.132s-0.132-0.196-0.132-0.325c0-0.105,0.035-0.205,0.105-0.299V65.364
		c0-0.352-0.041-0.703-0.123-1.055s-0.223-0.668-0.422-0.949s-0.466-0.51-0.8-0.686s-0.753-0.264-1.257-0.264
		c-0.48,0-0.882,0.079-1.204,0.237s-0.583,0.366-0.782,0.624s-0.346,0.551-0.439,0.879s-0.146,0.662-0.158,1.002v14.502
		c0.07,0.094,0.105,0.193,0.105,0.299c0,0.129-0.047,0.237-0.141,0.325s-0.205,0.132-0.334,0.132s-0.237-0.044-0.325-0.132
		s-0.132-0.196-0.132-0.325c0-0.105,0.035-0.205,0.105-0.299V65.364c0-0.352-0.041-0.703-0.123-1.055s-0.223-0.668-0.422-0.949
		s-0.466-0.51-0.8-0.686s-0.753-0.264-1.257-0.264c-0.48,0-0.888,0.079-1.222,0.237s-0.601,0.366-0.8,0.624
		s-0.343,0.551-0.431,0.879s-0.132,0.662-0.132,1.002v14.502c0.07,0.094,0.105,0.193,0.105,0.299c0,0.129-0.047,0.237-0.141,0.325
		s-0.205,0.132-0.334,0.132s-0.237-0.044-0.325-0.132s-0.132-0.196-0.132-0.325c0-0.105,0.035-0.205,0.105-0.299V62.499
		c-0.07-0.117-0.105-0.229-0.105-0.334c0-0.129,0.044-0.237,0.132-0.325s0.196-0.132,0.325-0.132s0.24,0.044,0.334,0.132
		s0.141,0.196,0.141,0.325c0,0.105-0.035,0.217-0.105,0.334v0.598c0.293-0.445,0.645-0.788,1.055-1.028s0.932-0.36,1.564-0.36
		c0.844,0,1.497,0.176,1.96,0.527s0.794,0.797,0.993,1.336c0.27-0.645,0.677-1.116,1.222-1.415s1.122-0.448,1.731-0.448
		c0.633,0,1.16,0.105,1.582,0.316s0.759,0.486,1.011,0.826s0.431,0.727,0.536,1.16s0.158,0.873,0.158,1.318V79.655z"/>
</g>
</svg>
