<?xml version="1.0" encoding="utf-8"?>
<!-- Generator: Adobe Illustrator 16.0.0, SVG Export Plug-In . SVG Version: 6.00 Build 0)  -->
<!DOCTYPE svg PUBLIC "-//W3C//DTD SVG 1.1//EN" "http://www.w3.org/Graphics/SVG/1.1/DTD/svg11.dtd">
<svg version="1.1" id="Layer_1" xmlns="http://www.w3.org/2000/svg" xmlns:xlink="http://www.w3.org/1999/xlink" x="0px" y="0px"
	 width="230px" height="140px" viewBox="0 0 230 140" enable-background="new 0 0 230 140" xml:space="preserve">
<rect fill="#9FBC2E" width="230" height="140"/>
<g>
	<rect x="80" y="55.5" fill="none" width="68.5" height="36"/>
	<path fill="#FFFFFF" d="M88.209,80.339c0.105-0.07,0.211-0.105,0.316-0.105c0.129,0,0.24,0.047,0.334,0.141S89,80.579,89,80.708
		s-0.047,0.237-0.141,0.325s-0.205,0.132-0.334,0.132c-0.105,0-0.211-0.035-0.316-0.105h-6.697V59.931
		c0-0.516,0.059-1.017,0.176-1.503s0.322-0.92,0.615-1.301s0.683-0.688,1.169-0.923s1.093-0.352,1.819-0.352h2.918
		c0.105-0.07,0.211-0.105,0.316-0.105c0.129,0,0.24,0.047,0.334,0.141S89,56.093,89,56.222s-0.047,0.24-0.141,0.334
		s-0.205,0.141-0.334,0.141c-0.094,0-0.199-0.041-0.316-0.123h-2.918c-0.598,0-1.093,0.097-1.485,0.29s-0.706,0.448-0.94,0.765
		s-0.398,0.677-0.492,1.081s-0.141,0.812-0.141,1.222v3.129h4.939c0.105-0.07,0.211-0.105,0.316-0.105
		c0.129,0,0.24,0.044,0.334,0.132s0.141,0.196,0.141,0.325s-0.047,0.24-0.141,0.334s-0.205,0.141-0.334,0.141
		c-0.105,0-0.211-0.035-0.316-0.105h-4.939v16.559H88.209z"/>
	<path fill="#FFFFFF" d="M98.334,80.55c0.164,0.082,0.246,0.217,0.246,0.404c0,0.129-0.047,0.237-0.141,0.325
		s-0.205,0.132-0.334,0.132s-0.237-0.044-0.325-0.132s-0.132-0.196-0.132-0.325v-0.141l-4.254-9.334l-1.617,2.707v6.469
		c0.07,0.094,0.105,0.193,0.105,0.299c0,0.129-0.047,0.237-0.141,0.325s-0.205,0.132-0.334,0.132s-0.237-0.044-0.325-0.132
		s-0.132-0.196-0.132-0.325c0-0.105,0.035-0.205,0.105-0.299V56.292c-0.07-0.105-0.105-0.211-0.105-0.316
		c0-0.129,0.044-0.24,0.132-0.334s0.196-0.141,0.325-0.141s0.24,0.047,0.334,0.141s0.141,0.205,0.141,0.334
		c0,0.105-0.035,0.211-0.105,0.316V72.78l5.766-9.545v-0.07c0-0.129,0.044-0.237,0.132-0.325s0.196-0.132,0.325-0.132
		s0.24,0.044,0.334,0.132s0.141,0.196,0.141,0.325c0,0.234-0.111,0.393-0.334,0.475l-4.271,7.084L98.334,80.55z"/>
	<path fill="#FFFFFF" d="M107.299,77.28c0,0.516-0.062,1.02-0.185,1.512s-0.331,0.932-0.624,1.318s-0.674,0.7-1.143,0.94
		s-1.055,0.36-1.758,0.36s-1.292-0.12-1.767-0.36s-0.855-0.554-1.143-0.94s-0.492-0.826-0.615-1.318s-0.185-0.996-0.185-1.512
		V66.839c0-0.516,0.062-1.02,0.185-1.512s0.328-0.932,0.615-1.318s0.668-0.7,1.143-0.94s1.063-0.36,1.767-0.36
		s1.289,0.12,1.758,0.36s0.85,0.554,1.143,0.94s0.501,0.826,0.624,1.318s0.185,0.996,0.185,1.512V77.28z M100.602,77.28
		c0,0.422,0.05,0.838,0.149,1.248s0.264,0.776,0.492,1.099s0.536,0.583,0.923,0.782s0.861,0.299,1.424,0.299
		c0.574,0,1.055-0.1,1.441-0.299s0.694-0.46,0.923-0.782s0.39-0.688,0.483-1.099s0.141-0.826,0.141-1.248V66.839
		c0-0.41-0.047-0.82-0.141-1.23s-0.255-0.776-0.483-1.099s-0.536-0.586-0.923-0.791s-0.867-0.308-1.441-0.308
		c-0.563,0-1.037,0.103-1.424,0.308s-0.694,0.469-0.923,0.791s-0.393,0.688-0.492,1.099s-0.149,0.82-0.149,1.23V77.28z"/>
	<path fill="#FFFFFF" d="M117.406,80.655c0.07,0.094,0.105,0.193,0.105,0.299c0,0.129-0.047,0.237-0.141,0.325
		s-0.205,0.132-0.334,0.132s-0.237-0.044-0.325-0.132s-0.132-0.196-0.132-0.325c0-0.105,0.035-0.205,0.105-0.299V66.839
		c0-0.41-0.047-0.82-0.141-1.23s-0.255-0.776-0.483-1.099s-0.533-0.586-0.914-0.791s-0.864-0.308-1.45-0.308
		c-0.504,0-0.943,0.103-1.318,0.308s-0.686,0.469-0.932,0.791s-0.431,0.688-0.554,1.099s-0.185,0.82-0.185,1.23v13.816
		c0.07,0.094,0.105,0.193,0.105,0.299c0,0.129-0.047,0.237-0.141,0.325s-0.205,0.132-0.334,0.132s-0.237-0.044-0.325-0.132
		s-0.132-0.196-0.132-0.325c0-0.105,0.035-0.205,0.105-0.299V63.499c-0.07-0.117-0.105-0.229-0.105-0.334
		c0-0.129,0.044-0.237,0.132-0.325s0.196-0.132,0.325-0.132s0.24,0.044,0.334,0.132s0.141,0.196,0.141,0.325
		c0,0.105-0.035,0.217-0.105,0.334v0.896c0.328-0.574,0.727-0.999,1.195-1.274s1.066-0.413,1.793-0.413
		c0.715,0,1.31,0.12,1.784,0.36s0.855,0.554,1.143,0.94s0.489,0.826,0.606,1.318s0.176,0.996,0.176,1.512V80.655z"/>
	<path fill="#FFFFFF" d="M127.461,77.28c0,0.516-0.062,1.02-0.185,1.512s-0.331,0.932-0.624,1.318s-0.674,0.7-1.143,0.94
		s-1.055,0.36-1.758,0.36s-1.292-0.12-1.767-0.36s-0.855-0.554-1.143-0.94s-0.492-0.826-0.615-1.318s-0.185-0.996-0.185-1.512
		V66.839c0-0.516,0.062-1.02,0.185-1.512s0.328-0.932,0.615-1.318s0.668-0.7,1.143-0.94s1.063-0.36,1.767-0.36
		s1.289,0.12,1.758,0.36s0.85,0.554,1.143,0.94s0.501,0.826,0.624,1.318s0.185,0.996,0.185,1.512V77.28z M120.764,77.28
		c0,0.422,0.05,0.838,0.149,1.248s0.264,0.776,0.492,1.099s0.536,0.583,0.923,0.782s0.861,0.299,1.424,0.299
		c0.574,0,1.055-0.1,1.441-0.299s0.694-0.46,0.923-0.782s0.39-0.688,0.483-1.099s0.141-0.826,0.141-1.248V66.839
		c0-0.41-0.047-0.82-0.141-1.23s-0.255-0.776-0.483-1.099s-0.536-0.586-0.923-0.791s-0.867-0.308-1.441-0.308
		c-0.563,0-1.037,0.103-1.424,0.308s-0.694,0.469-0.923,0.791s-0.393,0.688-0.492,1.099s-0.149,0.82-0.149,1.23V77.28z"/>
	<path fill="#FFFFFF" d="M142.684,80.655c0.07,0.094,0.105,0.193,0.105,0.299c0,0.129-0.047,0.237-0.141,0.325
		s-0.205,0.132-0.334,0.132s-0.237-0.044-0.325-0.132s-0.132-0.196-0.132-0.325c0-0.105,0.035-0.205,0.105-0.299V66.364
		c0-0.352-0.041-0.703-0.123-1.055s-0.223-0.668-0.422-0.949s-0.466-0.51-0.8-0.686s-0.753-0.264-1.257-0.264
		c-0.48,0-0.882,0.079-1.204,0.237s-0.583,0.366-0.782,0.624s-0.346,0.551-0.439,0.879s-0.146,0.662-0.158,1.002v14.502
		c0.07,0.094,0.105,0.193,0.105,0.299c0,0.129-0.047,0.237-0.141,0.325s-0.205,0.132-0.334,0.132s-0.237-0.044-0.325-0.132
		s-0.132-0.196-0.132-0.325c0-0.105,0.035-0.205,0.105-0.299V66.364c0-0.352-0.041-0.703-0.123-1.055s-0.223-0.668-0.422-0.949
		s-0.466-0.51-0.8-0.686s-0.753-0.264-1.257-0.264c-0.48,0-0.888,0.079-1.222,0.237s-0.601,0.366-0.8,0.624
		s-0.343,0.551-0.431,0.879s-0.132,0.662-0.132,1.002v14.502c0.07,0.094,0.105,0.193,0.105,0.299c0,0.129-0.047,0.237-0.141,0.325
		s-0.205,0.132-0.334,0.132s-0.237-0.044-0.325-0.132s-0.132-0.196-0.132-0.325c0-0.105,0.035-0.205,0.105-0.299V63.499
		c-0.07-0.117-0.105-0.229-0.105-0.334c0-0.129,0.044-0.237,0.132-0.325s0.196-0.132,0.325-0.132s0.24,0.044,0.334,0.132
		s0.141,0.196,0.141,0.325c0,0.105-0.035,0.217-0.105,0.334v0.598c0.293-0.445,0.645-0.788,1.055-1.028s0.932-0.36,1.564-0.36
		c0.844,0,1.497,0.176,1.96,0.527s0.794,0.797,0.993,1.336c0.27-0.645,0.677-1.116,1.222-1.415s1.122-0.448,1.731-0.448
		c0.633,0,1.16,0.105,1.582,0.316s0.759,0.486,1.011,0.826s0.431,0.727,0.536,1.16s0.158,0.873,0.158,1.318V80.655z"/>
	<path fill="#FFFFFF" d="M146.305,58.735c0.07,0.07,0.105,0.164,0.105,0.281c0,0.129-0.044,0.24-0.132,0.334
		s-0.196,0.141-0.325,0.141s-0.24-0.047-0.334-0.141s-0.141-0.205-0.141-0.334c0-0.117,0.035-0.211,0.105-0.281v-1.037
		c-0.07-0.117-0.105-0.229-0.105-0.334c0-0.129,0.047-0.237,0.141-0.325s0.205-0.132,0.334-0.132s0.237,0.044,0.325,0.132
		s0.132,0.196,0.132,0.325c0,0.105-0.035,0.217-0.105,0.334V58.735z M146.305,80.655c0.07,0.094,0.105,0.193,0.105,0.299
		c0,0.129-0.044,0.237-0.132,0.325s-0.196,0.132-0.325,0.132s-0.24-0.044-0.334-0.132s-0.141-0.196-0.141-0.325
		c0-0.105,0.035-0.205,0.105-0.299V63.499c-0.07-0.117-0.105-0.229-0.105-0.334c0-0.129,0.047-0.237,0.141-0.325
		s0.205-0.132,0.334-0.132s0.237,0.044,0.325,0.132s0.132,0.196,0.132,0.325c0,0.105-0.035,0.217-0.105,0.334V80.655z"/>
</g>
</svg>
