<?xml version="1.0" encoding="utf-8"?>
<!-- Generator: Adobe Illustrator 16.0.0, SVG Export Plug-In . SVG Version: 6.00 Build 0)  -->
<!DOCTYPE svg PUBLIC "-//W3C//DTD SVG 1.1//EN" "http://www.w3.org/Graphics/SVG/1.1/DTD/svg11.dtd">
<svg version="1.1" id="Layer_1" xmlns="http://www.w3.org/2000/svg" xmlns:xlink="http://www.w3.org/1999/xlink" x="0px" y="0px"
	 width="230px" height="140px" viewBox="0 0 230 140" enable-background="new 0 0 230 140" xml:space="preserve">
<rect fill="#F4BB3A" width="230" height="140"/>
<g>
	<rect x="87.5" y="53.5" fill="none" width="49" height="35"/>
	<path fill="#FFFFFF" d="M96.061,75.421c0,0.516-0.064,1.014-0.193,1.494s-0.34,0.905-0.633,1.274s-0.68,0.665-1.16,0.888
		s-1.078,0.334-1.793,0.334c-0.668,0-1.23-0.1-1.688-0.299s-0.835-0.466-1.134-0.8s-0.519-0.724-0.659-1.169
		s-0.229-0.908-0.264-1.389c-0.035-0.047-0.062-0.1-0.079-0.158s-0.026-0.117-0.026-0.176c0-0.129,0.047-0.237,0.141-0.325
		s0.205-0.132,0.334-0.132s0.237,0.044,0.325,0.132s0.132,0.196,0.132,0.325c0,0.059-0.009,0.117-0.026,0.176
		s-0.044,0.111-0.079,0.158c0.012,0.398,0.076,0.776,0.193,1.134s0.296,0.671,0.536,0.94s0.548,0.483,0.923,0.642
		s0.832,0.237,1.371,0.237c0.574,0,1.058-0.091,1.45-0.272s0.706-0.428,0.94-0.738s0.404-0.662,0.51-1.055s0.158-0.8,0.158-1.222
		v-4.5c0-0.609-0.12-1.192-0.36-1.749s-0.583-1.04-1.028-1.45l-4.219-3.744c-0.293-0.258-0.527-0.524-0.703-0.8
		s-0.311-0.548-0.404-0.817s-0.155-0.542-0.185-0.817s-0.044-0.554-0.044-0.835v-3.111c0-0.504,0.064-1.002,0.193-1.494
		s0.34-0.932,0.633-1.318s0.68-0.697,1.16-0.932s1.078-0.352,1.793-0.352c0.668,0,1.233,0.105,1.696,0.316s0.841,0.492,1.134,0.844
		s0.513,0.753,0.659,1.204s0.231,0.923,0.255,1.415c0.035,0.035,0.062,0.082,0.079,0.141s0.026,0.117,0.026,0.176
		c0,0.129-0.044,0.24-0.132,0.334s-0.196,0.141-0.325,0.141s-0.24-0.047-0.334-0.141s-0.141-0.205-0.141-0.334
		c0-0.117,0.035-0.211,0.105-0.281c-0.023-0.387-0.091-0.765-0.202-1.134s-0.287-0.7-0.527-0.993s-0.548-0.527-0.923-0.703
		s-0.832-0.264-1.371-0.264c-0.574,0-1.058,0.1-1.45,0.299s-0.706,0.457-0.94,0.773s-0.404,0.677-0.51,1.081
		s-0.158,0.812-0.158,1.222v3.111c0.023,0.598,0.114,1.128,0.272,1.591s0.442,0.876,0.853,1.239l4.236,3.744
		c0.633,0.586,1.055,1.189,1.266,1.811s0.316,1.23,0.316,1.828V75.421z"/>
	<path fill="#FFFFFF" d="M105.605,78.655c0.082,0.105,0.123,0.205,0.123,0.299c0,0.129-0.047,0.237-0.141,0.325
		s-0.205,0.132-0.334,0.132s-0.24-0.044-0.334-0.132s-0.141-0.196-0.141-0.325c0-0.105,0.035-0.205,0.105-0.299v-0.756
		c-0.316,0.457-0.712,0.823-1.187,1.099s-1.075,0.413-1.802,0.413c-0.703,0-1.292-0.12-1.767-0.36s-0.855-0.554-1.143-0.94
		s-0.492-0.826-0.615-1.318s-0.185-0.996-0.185-1.512v-2.918c0-0.516,0.056-1.02,0.167-1.512s0.328-0.932,0.65-1.318
		s0.785-0.7,1.389-0.94s1.397-0.36,2.382-0.36h2.109v-3.393c0-0.41-0.05-0.82-0.149-1.23s-0.264-0.776-0.492-1.099
		s-0.536-0.586-0.923-0.791s-0.861-0.308-1.424-0.308c-0.539,0-0.996,0.091-1.371,0.272s-0.683,0.416-0.923,0.703
		s-0.419,0.618-0.536,0.993s-0.182,0.756-0.193,1.143c0.082,0.082,0.123,0.176,0.123,0.281s-0.047,0.205-0.141,0.299
		s-0.205,0.141-0.334,0.141s-0.24-0.047-0.334-0.141s-0.141-0.193-0.141-0.299c0-0.059,0.009-0.117,0.026-0.176
		s0.044-0.105,0.079-0.141c0.035-0.492,0.123-0.964,0.264-1.415s0.36-0.853,0.659-1.204s0.677-0.633,1.134-0.844
		s1.02-0.316,1.688-0.316c0.703,0,1.292,0.12,1.767,0.36s0.855,0.554,1.143,0.94s0.492,0.826,0.615,1.318s0.185,0.996,0.185,1.512
		V78.655z M98.908,75.28c0,0.41,0.047,0.82,0.141,1.23s0.255,0.779,0.483,1.107s0.533,0.592,0.914,0.791s0.864,0.299,1.45,0.299
		c0.563,0,1.031-0.091,1.406-0.272s0.677-0.422,0.905-0.721s0.393-0.639,0.492-1.02s0.161-0.771,0.185-1.169v-6.574h-2.109
		c-0.844,0-1.521,0.1-2.03,0.299s-0.902,0.46-1.178,0.782s-0.454,0.688-0.536,1.099s-0.123,0.82-0.123,1.23V75.28z"/>
	<path fill="#FFFFFF" d="M115.66,82.487c0,0.516-0.062,1.02-0.185,1.512s-0.331,0.932-0.624,1.318s-0.674,0.7-1.143,0.94
		s-1.055,0.36-1.758,0.36c-0.668,0-1.233-0.105-1.696-0.316s-0.841-0.492-1.134-0.844s-0.513-0.753-0.659-1.204
		s-0.231-0.923-0.255-1.415c-0.082-0.082-0.123-0.188-0.123-0.316c0-0.117,0.047-0.22,0.141-0.308s0.205-0.132,0.334-0.132
		s0.24,0.044,0.334,0.132s0.141,0.19,0.141,0.308c0,0.059-0.009,0.117-0.026,0.176s-0.044,0.105-0.079,0.141
		c0.012,0.398,0.076,0.782,0.193,1.151s0.296,0.694,0.536,0.976s0.548,0.507,0.923,0.677s0.832,0.255,1.371,0.255
		c0.563,0,1.037-0.1,1.424-0.299s0.694-0.457,0.923-0.773s0.393-0.68,0.492-1.09s0.149-0.826,0.149-1.248v-4.588
		c-0.328,0.457-0.727,0.823-1.195,1.099s-1.066,0.413-1.793,0.413c-0.715,0-1.31-0.12-1.784-0.36s-0.855-0.554-1.143-0.94
		s-0.489-0.826-0.606-1.318s-0.176-0.996-0.176-1.512V64.839c0-0.516,0.059-1.02,0.176-1.512s0.319-0.932,0.606-1.318
		s0.668-0.7,1.143-0.94s1.069-0.36,1.784-0.36c0.727,0,1.324,0.138,1.793,0.413s0.867,0.642,1.195,1.099v-0.756
		c-0.082-0.141-0.123-0.252-0.123-0.334c0-0.129,0.047-0.24,0.141-0.334s0.205-0.141,0.334-0.141s0.24,0.047,0.334,0.141
		s0.141,0.205,0.141,0.334c0,0.105-0.035,0.217-0.105,0.334V82.487z M108.963,75.28c0,0.41,0.047,0.82,0.141,1.23
		s0.255,0.779,0.483,1.107s0.533,0.592,0.914,0.791s0.864,0.299,1.45,0.299c0.563,0,1.031-0.091,1.406-0.272
		s0.677-0.422,0.905-0.721s0.393-0.639,0.492-1.02s0.161-0.771,0.185-1.169V64.839c0-0.41-0.062-0.82-0.185-1.23
		s-0.308-0.776-0.554-1.099s-0.557-0.586-0.932-0.791s-0.814-0.308-1.318-0.308c-0.586,0-1.069,0.103-1.45,0.308
		s-0.686,0.469-0.914,0.791s-0.39,0.688-0.483,1.099s-0.141,0.82-0.141,1.23V75.28z"/>
	<path fill="#FFFFFF" d="M119.316,78.655c0.07,0.094,0.105,0.193,0.105,0.299c0,0.129-0.044,0.237-0.132,0.325
		s-0.196,0.132-0.325,0.132s-0.24-0.044-0.334-0.132s-0.141-0.196-0.141-0.325c0-0.105,0.035-0.205,0.105-0.299V54.292
		c-0.07-0.105-0.105-0.211-0.105-0.316c0-0.129,0.047-0.24,0.141-0.334s0.205-0.141,0.334-0.141s0.237,0.047,0.325,0.141
		s0.132,0.205,0.132,0.334c0,0.105-0.035,0.211-0.105,0.316V78.655z"/>
	<path fill="#FFFFFF" d="M123.096,56.735c0.07,0.07,0.105,0.164,0.105,0.281c0,0.129-0.044,0.24-0.132,0.334
		s-0.196,0.141-0.325,0.141s-0.24-0.047-0.334-0.141s-0.141-0.205-0.141-0.334c0-0.117,0.035-0.211,0.105-0.281v-1.037
		c-0.07-0.117-0.105-0.229-0.105-0.334c0-0.129,0.047-0.237,0.141-0.325s0.205-0.132,0.334-0.132s0.237,0.044,0.325,0.132
		s0.132,0.196,0.132,0.325c0,0.105-0.035,0.217-0.105,0.334V56.735z M123.096,78.655c0.07,0.094,0.105,0.193,0.105,0.299
		c0,0.129-0.044,0.237-0.132,0.325s-0.196,0.132-0.325,0.132s-0.24-0.044-0.334-0.132s-0.141-0.196-0.141-0.325
		c0-0.105,0.035-0.205,0.105-0.299V61.499c-0.07-0.117-0.105-0.229-0.105-0.334c0-0.129,0.047-0.237,0.141-0.325
		s0.205-0.132,0.334-0.132s0.237,0.044,0.325,0.132s0.132,0.196,0.132,0.325c0,0.105-0.035,0.217-0.105,0.334V78.655z"/>
	<path fill="#FFFFFF" d="M133.326,78.55c0.164,0.082,0.246,0.217,0.246,0.404c0,0.129-0.047,0.237-0.141,0.325
		s-0.205,0.132-0.334,0.132s-0.237-0.044-0.325-0.132s-0.132-0.196-0.132-0.325v-0.141l-4.254-9.334l-1.617,2.707v6.469
		c0.07,0.094,0.105,0.193,0.105,0.299c0,0.129-0.047,0.237-0.141,0.325s-0.205,0.132-0.334,0.132s-0.237-0.044-0.325-0.132
		s-0.132-0.196-0.132-0.325c0-0.105,0.035-0.205,0.105-0.299V54.292c-0.07-0.105-0.105-0.211-0.105-0.316
		c0-0.129,0.044-0.24,0.132-0.334s0.196-0.141,0.325-0.141s0.24,0.047,0.334,0.141s0.141,0.205,0.141,0.334
		c0,0.105-0.035,0.211-0.105,0.316V70.78l5.766-9.545v-0.07c0-0.129,0.044-0.237,0.132-0.325s0.196-0.132,0.325-0.132
		s0.24,0.044,0.334,0.132s0.141,0.196,0.141,0.325c0,0.234-0.111,0.393-0.334,0.475l-4.271,7.084L133.326,78.55z"/>
</g>
</svg>
